<svg xmlns="http://www.w3.org/2000/svg" xmlns:xlink="http://www.w3.org/1999/xlink" width="512" zoomAndPan="magnify" viewBox="0 0 384 383.999986" height="512" preserveAspectRatio="xMidYMid meet" version="1.0"><defs><clipPath id="3d1429459c"><path d="M 0 8.234375 L 384 8.234375 L 384 375.734375 L 0 375.734375 Z M 0 8.234375 " clip-rule="nonzero"/></clipPath><clipPath id="bd7f72e902"><rect x="0" width="384" y="0" height="368"/></clipPath></defs><rect x="-38.4" width="460.8" fill="#ffffff" y="-38.399999" height="460.799983" fill-opacity="1"/><rect x="-38.4" width="460.8" fill="#ffffff" y="-38.399999" height="460.799983" fill-opacity="1"/><g clip-path="url(#3d1429459c)"><g transform="matrix(1, 0, 0, 1, 0, 8)"><g clip-path="url(#bd7f72e902)"><path stroke-linecap="round" transform="matrix(-1.83747, 0, 0, 1.8375, 412.514351, 0.233784)" fill="none" stroke-linejoin="round" d="M 39.999952 40.000325 L 78.000141 155.999484 L 119.999118 70.000327 L 162.000221 155.999484 L 180.000087 110.000331 " stroke="#0b1e36" stroke-width="22" stroke-opacity="1" stroke-miterlimit="4"/><path fill="#15c3dd" d="M 313.289062 73.734375 C 313.289062 74.578125 313.332031 75.417969 313.414062 76.253906 C 313.496094 77.09375 313.621094 77.925781 313.785156 78.753906 C 313.949219 79.578125 314.152344 80.394531 314.398438 81.203125 C 314.644531 82.007812 314.925781 82.800781 315.25 83.578125 C 315.570312 84.355469 315.929688 85.117188 316.328125 85.859375 C 316.726562 86.601562 317.160156 87.324219 317.625 88.027344 C 318.09375 88.726562 318.59375 89.402344 319.128906 90.054688 C 319.664062 90.703125 320.230469 91.328125 320.824219 91.925781 C 321.421875 92.519531 322.042969 93.085938 322.695312 93.621094 C 323.347656 94.152344 324.023438 94.65625 324.722656 95.125 C 325.425781 95.589844 326.144531 96.023438 326.890625 96.421875 C 327.632812 96.816406 328.394531 97.179688 329.171875 97.5 C 329.949219 97.824219 330.742188 98.105469 331.546875 98.351562 C 332.355469 98.59375 333.171875 98.800781 333.996094 98.964844 C 334.824219 99.128906 335.65625 99.253906 336.492188 99.335938 C 337.332031 99.417969 338.171875 99.457031 339.015625 99.457031 C 339.859375 99.457031 340.699219 99.417969 341.535156 99.335938 C 342.375 99.253906 343.207031 99.128906 344.035156 98.964844 C 344.859375 98.800781 345.675781 98.59375 346.484375 98.351562 C 347.289062 98.105469 348.082031 97.824219 348.859375 97.5 C 349.636719 97.179688 350.398438 96.816406 351.140625 96.421875 C 351.886719 96.023438 352.605469 95.589844 353.308594 95.125 C 354.007812 94.65625 354.683594 94.152344 355.335938 93.621094 C 355.984375 93.085938 356.609375 92.519531 357.207031 91.925781 C 357.800781 91.328125 358.367188 90.703125 358.902344 90.054688 C 359.433594 89.402344 359.9375 88.726562 360.40625 88.027344 C 360.871094 87.324219 361.304688 86.601562 361.703125 85.859375 C 362.101562 85.117188 362.460938 84.355469 362.78125 83.578125 C 363.105469 82.800781 363.386719 82.007812 363.632812 81.203125 C 363.878906 80.394531 364.082031 79.578125 364.246094 78.753906 C 364.410156 77.925781 364.535156 77.09375 364.617188 76.253906 C 364.699219 75.417969 364.738281 74.578125 364.738281 73.734375 C 364.738281 72.890625 364.699219 72.050781 364.617188 71.210938 C 364.535156 70.375 364.410156 69.542969 364.246094 68.714844 C 364.082031 67.890625 363.878906 67.074219 363.632812 66.265625 C 363.386719 65.460938 363.105469 64.667969 362.78125 63.890625 C 362.460938 63.109375 362.101562 62.351562 361.703125 61.605469 C 361.304688 60.863281 360.871094 60.140625 360.40625 59.441406 C 359.9375 58.742188 359.433594 58.066406 358.902344 57.414062 C 358.367188 56.761719 357.800781 56.140625 357.207031 55.542969 C 356.609375 54.949219 355.984375 54.382812 355.335938 53.847656 C 354.683594 53.3125 354.007812 52.8125 353.308594 52.34375 C 352.605469 51.875 351.886719 51.445312 351.140625 51.046875 C 350.398438 50.648438 349.636719 50.289062 348.859375 49.96875 C 348.082031 49.644531 347.289062 49.359375 346.484375 49.117188 C 345.675781 48.871094 344.859375 48.667969 344.035156 48.503906 C 343.207031 48.339844 342.375 48.214844 341.535156 48.132812 C 340.699219 48.050781 339.859375 48.007812 339.015625 48.007812 C 338.171875 48.007812 337.332031 48.050781 336.492188 48.132812 C 335.65625 48.214844 334.824219 48.339844 333.996094 48.503906 C 333.171875 48.667969 332.355469 48.871094 331.546875 49.117188 C 330.742188 49.359375 329.949219 49.644531 329.171875 49.96875 C 328.394531 50.289062 327.632812 50.648438 326.890625 51.046875 C 326.144531 51.445312 325.425781 51.875 324.722656 52.34375 C 324.023438 52.8125 323.347656 53.3125 322.695312 53.847656 C 322.042969 54.382812 321.421875 54.949219 320.824219 55.542969 C 320.230469 56.140625 319.664062 56.761719 319.128906 57.414062 C 318.59375 58.066406 318.09375 58.742188 317.625 59.441406 C 317.160156 60.140625 316.726562 60.863281 316.328125 61.605469 C 315.929688 62.351562 315.570312 63.109375 315.25 63.890625 C 314.925781 64.667969 314.644531 65.460938 314.398438 66.265625 C 314.152344 67.074219 313.949219 67.890625 313.785156 68.714844 C 313.621094 69.542969 313.496094 70.375 313.414062 71.210938 C 313.332031 72.050781 313.289062 72.890625 313.289062 73.734375 Z M 313.289062 73.734375 " fill-opacity="1" fill-rule="nonzero"/></g></g></g></svg>