<svg width="400" height="300" viewBox="0 0 400 300" fill="none" xmlns="http://www.w3.org/2000/svg">
<path d="M97.805 64.9271C99.0644 65.1771 100.154 65.8385 101.293 66.4427C103.724 67.7031 106.194 68.8489 108.689 69.9583L109.236 70.1979C111.397 71.1562 113.567 72.0781 115.751 72.9687C120.169 74.7708 124.097 76.8594 127.609 80.3229L128.04 80.7448C133.223 85.8177 135.988 92.7291 138.124 99.8021V100.432C139.04 100.193 139.04 100.193 139.582 99.4166L140.227 98.526C143.777 93.776 148.422 89.9271 153.707 87.6562C158.168 85.8333 162.813 84.7656 167.497 83.8541L168.233 83.7135C169.439 83.4791 170.645 83.25 171.856 83.0312C174.428 82.5521 176.836 81.9219 179.287 80.9427C180.144 80.6562 180.774 80.5729 181.66 80.6354C182.566 85.8073 181.767 91.4062 180.197 96.3437C178.555 101.109 176.303 105.396 173.188 109.229L172.68 109.901C169.018 114.672 163.515 118 158.197 120.182C152.825 122.312 147.226 123.745 141.578 124.734L140.755 124.937L140.173 125.562C140.59 129.833 142.876 134.062 145.138 137.5C146.136 138.839 147.226 140.062 148.354 141.271L148.945 141.906C153.431 146.406 160.013 149.375 165.952 150.859C170.093 151.828 173.983 152.344 178.226 152.344L178.855 152.349C188.185 152.333 197.179 149.812 205.293 144.839C208.582 142.667 211.74 140.094 214.559 137.26C215.135 136.682 215.721 136.135 216.322 135.583C217.843 134.156 219.248 132.609 220.667 131.062C222.26 129.323 223.854 127.604 225.578 126.016C226.193 125.453 226.78 124.859 227.366 124.266C228.858 122.823 230.437 121.526 232.035 120.224C233.42 119.099 234.786 117.948 236.133 116.766C244.028 109.927 252.781 103.995 261.718 98.8594L262.497 98.4114C283.02 86.6562 304.783 80.5885 327.84 77.8698L328.731 77.7604C334.04 77.1771 339.358 77.125 344.686 77.125C345.786 77.125 346.88 77.1198 347.98 77.1094C361.455 77.0781 376.907 78.5885 388.803 85.9271C390.469 87 392.242 88.2552 393.264 90.0781C393.487 90.6927 393.487 90.6927 393.487 91.6354L392.6 91.9896C391.545 92.4166 390.489 92.8437 389.433 93.2708C388.89 93.4844 388.353 93.7031 387.81 93.9166C385.354 94.9062 382.991 96.0573 380.632 97.2864L379.745 97.7448C369.171 103.234 359.4 110.333 349.957 117.885C347.398 119.906 344.819 121.854 342.168 123.739C341.62 124.13 341.073 124.521 340.509 124.917C324.105 136.615 309.555 150.885 297.072 167.745L296.674 168.266C290.823 176.151 285.675 184.437 280.715 193.005L280.172 193.932C278.598 196.646 277.065 199.38 275.561 202.135L275.187 202.823L274.858 203.427C266.745 218.286 259.848 234.057 253.527 250.099L253.193 250.969C251.366 255.687 249.661 260.443 248.012 265.24C247.805 265.844 247.598 266.443 247.395 267.052C246.692 269.167 246.034 271.297 245.403 273.443L245.097 274.484C244.635 276.141 244.362 277.458 244.629 279.208H244.045L243.633 278.266L243.186 277.271L242.691 276.141C242.217 275.063 241.75 273.979 241.283 272.896L240.852 271.896C238.256 265.797 235.961 259.615 234.151 253.141C234.062 252.844 233.977 252.547 233.89 252.245C233.25 250.12 232.631 247.995 232.036 245.854L231.766 244.906C230.126 239.01 228.771 232.964 227.891 226.812C226.998 220.698 225.887 214.609 224.47 208.609L224.246 207.656C222.864 201.917 220.994 196.354 218.802 190.948C217.717 188.24 216.821 185.495 215.967 182.681C215.434 180.995 214.832 179.385 214.172 177.781C212.946 174.808 212.102 171.729 211.267 168.615C210.822 166.948 210.343 165.313 209.843 163.666C208.963 160.786 208.267 157.87 207.597 154.912C207.417 154.121 207.417 154.121 207.238 153.318C205.887 147.156 205.147 140.984 204.569 134.734L204.482 133.781C204.15 130.078 203.922 126.396 203.84 122.672L203.819 121.901C203.76 119.203 203.908 116.656 204.483 114.031L204.677 113.156C206.144 106.412 208.996 100.078 214.558 95.75C215.136 95.3854 215.136 95.3854 215.725 95C215.145 94.8126 214.564 94.6292 213.99 94.4375C210.036 93.1146 206.146 91.5729 202.257 90.0417C201.727 89.8333 201.197 89.625 200.651 89.4114C197.146 88.0208 193.649 86.6354 190.151 85.2396L187.946 84.3594C184.506 82.9896 181.054 81.625 177.607 80.26L176.85 79.9583L176.156 79.6823C170.88 77.5885 165.518 75.7031 160.138 73.8802L159.38 73.625C153.827 71.75 148.265 69.9114 142.71 68.0677L142.068 67.8542L140.866 67.4687C139.185 66.9219 137.499 66.375 135.821 65.8229C134.867 65.5104 133.914 65.2 132.959 64.8906L131.972 64.5677L131.184 64.3125C130.588 63.6146 130.432 63.125 130.278 62.224C130.062 60.6354 130.02 59.0625 130.045 57.4687C130.059 56.8229 130.059 56.1771 130.06 55.5313C130.15 53.0781 130.507 51.0781 131.184 48.7708C131.33 48.25 131.331 47.7292 131.331 47.1875L132.212 46.875L132.825 46.6771C141.087 44.1146 149.659 43.0208 158.197 42.1042C159.126 42.0052 160.056 41.9062 160.986 41.8073L162.004 41.7031C164.198 41.4687 166.388 41.2344 168.583 41L169.675 40.8802C173.078 40.5521 176.473 40.3802 179.891 40.2969C180.536 40.276 181.18 40.2552 181.822 40.2292C198.608 39.5677 215.301 40.9167 231.922 43.4271L233.147 43.6042C241.273 44.8437 249.264 46.6146 257.174 48.9375C258.194 49.2344 259.216 49.5104 260.24 49.7812C261.266 50.0521 262.293 50.3333 263.32 50.6146L264.082 50.8229C266.366 51.4479 268.647 52.0937 270.923 52.7656L271.73 53.0052C276.253 54.3437 280.753 55.776 285.231 57.25C285.742 57.4167 286.254 57.5833 286.765 57.75C293.146 59.8385 299.495 62.0416 305.7 64.5729C307.042 65.1042 308.399 65.6042 309.75 66.1094C310.195 66.2708 310.64 66.4322 311.084 66.599L311.756 66.8542C312.488 67.2292 312.803 67.6146 313.321 68.2604L312.785 68.9531C312.355 69.5104 311.928 70.0677 311.5 70.625L310.791 71.5312L309.887 72.6875L309.046 73.776L308.373 74.6354C307.915 75.1979 307.45 75.7448 306.97 76.2708C306.568 76.7031 306.183 77.1406 305.798 77.5937C304.943 78.5937 304.036 79.5365 303.095 80.4583L303.097 80.4583C303.097 80.4583 301.502 82.0104 301.502 82.0104C291.615 91.6823 278.906 100.557 266.1 105.901L265.37 106.208C263.715 106.891 262.024 107.479 260.326 108.026C259.803 108.198 259.281 108.375 258.758 108.557C254.486 109.995 250.132 111.052 245.722 111.906C245.159 112.021 244.595 112.135 244.032 112.25L243.467 112.365L242.902 112.479C242.247 112.609 241.591 112.729 240.932 112.844C240.355 112.948 239.78 113.057 239.206 113.172C237.931 113.417 236.692 113.583 235.421 113.5C234.751 112.745 234.411 111.802 234.223 110.786C234.091 110.078 233.961 109.422 233.781 108.724C233.719 108.49 233.659 108.255 233.6 108.021C233.384 107.177 233.384 107.177 232.949 106.844C232.335 107.036 231.734 107.274 231.139 107.526C230.622 107.729 230.622 107.729 230.093 107.937C229.532 108.151 228.969 108.365 228.406 108.578C227.828 108.802 227.25 109.026 226.671 109.255C225.505 109.719 224.338 110.177 223.171 110.635C221.379 111.339 219.587 112.042 217.795 112.75L216.728 113.172C212.568 114.813 208.405 116.458 204.25 118.135L203.601 118.401L202.995 118.641C201.962 119 201.179 119 200.141 118.875V118.484L200.758 117.807C201.187 117.339 201.616 116.872 202.046 116.407L202.569 115.844L203.079 115.292C207.096 110.927 211.045 106.563 214.823 101.974L215.229 101.484C215.827 100.761 216.408 100.031 216.969 99.2708L217.34 98.776L217.661 98.349L217.969 97.9375L218.343 97.4167C218.667 96.974 218.991 96.5312 219.314 96.0937C218.919 95.5729 218.523 95.0521 218.117 94.5312C217.66 93.9219 217.206 93.3073 216.754 92.6927L216.296 92.0833C215.868 91.5104 215.439 90.9427 215.01 90.375L214.615 89.849L214.275 89.4C213.976 89.0104 213.675 88.6198 213.375 88.2291C212.747 88.8542 212.748 88.8542 212.308 89.4583C211.854 90.0729 211.399 90.6875 210.943 91.3021C210.656 91.6927 210.369 92.0833 210.083 92.4739C209.792 92.8698 209.5 93.2656 209.208 93.6562L208.933 94.026C208.521 94.5833 208.113 95.141 207.706 95.698C206.903 96.7916 206.075 97.8583 205.228 98.911L204.706 99.5833C204.311 100.104 203.917 100.626 203.524 101.146L203.118 101.682L202.76 102.156L202.443 102.578C202.023 103.141 201.595 103.7 201.165 104.255L200.776 104.755C200.39 105.255 200.006 105.755 199.622 106.255L198.899 107.198C197.802 108.625 196.691 110.042 195.578 111.458C193.995 113.458 192.421 115.464 190.855 117.479L190.47 117.974C190.061 118.505 189.651 119.037 189.241 119.568C188.94 119.958 188.639 120.349 188.338 120.74L187.892 121.318L187.499 121.823C187.13 122.312 186.765 122.807 186.408 123.302L185.798 124.13C184.866 125.381 183.919 126.612 182.942 127.823L182.439 128.458C179.981 131.547 177.341 134.437 174.591 137.245C174.034 137.823 173.482 138.406 172.934 138.995C171.305 140.729 169.659 142.401 167.896 144C167.373 144.484 166.854 144.969 166.335 145.456C160.826 150.698 154.775 155.333 148.354 159.479L147.77 159.854C147.179 160.234 146.585 160.609 145.989 160.979C145.698 161.161 145.406 161.344 145.106 161.531L144.312 162.026L143.509 162.526L142.726 163.021C142.132 163.396 141.538 163.766 140.941 164.135C140.649 164.318 140.357 164.5 140.057 164.687L139.277 165.177L138.594 165.609L138.008 165.984C137.401 166.375 136.794 166.771 136.184 167.172L135.443 167.661C134.832 168.063 134.217 168.464 133.598 168.865C132.979 169.271 132.36 169.677 131.741 170.083C130.505 170.89 129.26 171.688 128.014 172.484C126.717 173.318 125.417 174.151 124.127 175L123.375 175.495C119.854 177.823 116.437 180.307 113.022 182.812C112.457 183.224 111.89 183.635 111.322 184.042C107.919 186.479 104.595 189.005 101.293 191.573L100.575 192.13C98.3025 193.891 96.0725 195.708 93.8625 197.552C93.5237 197.833 93.1849 198.115 92.8362 198.401C89.8312 200.911 86.8837 203.484 83.9587 206.094L83.1437 206.818C81.9325 207.896 80.7363 208.995 79.5375 210.091L78.0075 211.479C76.0037 213.313 74.0912 215.104 72.27 217.109C71.8175 217.59 71.346 218.058 70.875 218.521L68.8187 220.537C67.14 222.172 65.475 223.818 63.8725 225.526L63.4487 225.979C60.7375 228.89 58.1912 231.94 55.64 234.995L55.0525 235.687C54.1387 236.745 53.2137 237.792 52.2837 238.844C51.1662 240.083 50.0937 241.339 49.0175 242.609C48.5037 243.214 47.9912 243.818 47.4725 244.417C46.0025 246.104 44.5175 247.781 43.0325 249.443L42.2975 250.266C41.735 250.891 41.1687 251.521 40.6075 252.151L40.085 252.729L39.5637 253.286C39.2237 253.677 38.8837 254.068 38.5437 254.453C35.0725 258.385 31.4975 262.156 27.5725 265.693C26.8225 266.38 26.1212 267.099 25.4212 267.833C24.935 268.333 24.4487 268.823 23.9612 269.318L23.4512 269.854C23.125 270.198 22.8 270.536 22.4762 270.88L22.1275 271.24L21.8175 271.552H21.2487C20.8525 267.318 20.8 262.766 21.2487 258.536L21.3337 257.734C21.9662 252.016 23.5225 246.792 26.3925 241.839C26.775 241.167 26.775 241.167 27.0687 240.557C29.185 236.214 31.9162 232.339 34.7512 228.463L35.5 227.437C48.0962 210.547 63.0675 195.354 79.1837 181.604L79.7312 181.135C82.4062 178.849 85.125 176.64 87.9025 174.474C88.2062 174.234 88.5175 173.995 88.8212 173.755C93.0987 170.38 97.4212 167.042 101.78 163.771L102.35 163.333C104.492 161.724 106.617 160.083 108.688 158.385L109.5 157.729L110.255 157.104L110.966 156.521L111.661 155.943C112.311 155.406 112.964 154.88 113.621 154.349C114.385 153.724 115.145 153.094 115.906 152.468L116.674 151.838C118.126 150.641 119.574 149.437 121.011 148.219L121.639 147.682C124.361 145.354 127.054 142.99 129.705 140.583C130.221 140.115 130.741 139.651 131.261 139.187C131.765 138.74 132.264 138.286 132.761 137.823C133.224 137.411 133.684 136.99 134.156 136.589C135.088 135.781 135.955 134.948 136.801 134.052C137.361 133.464 137.971 132.943 138.577 132.406C139.229 131.833 139.883 131.26 140.531 130.682L141.213 130.083L141.913 129.458L142.533 128.917C142.906 128.563 142.906 128.563 143.287 128.432V127.805C142.807 127.922 142.807 127.922 142.324 128.052C142.145 128.099 141.965 128.146 141.779 128.193C141.402 128.292 141.025 128.391 140.647 128.49C139.863 128.698 139.083 128.912 138.302 129.125C135.88 129.781 133.453 130.417 131.022 131.021C130.395 131.177 130.395 131.177 129.756 131.333C129.33 131.437 128.903 131.542 128.475 131.646C128.082 131.74 127.687 131.833 127.294 131.927C126.387 132.125 126.387 132.125 125.578 131.974C124.805 130.839 124.374 129.708 123.803 128.458C123.58 127.974 123.355 127.49 123.131 127.005C122.872 126.453 122.611 125.901 122.354 125.354C118.867 117.93 116.053 110.453 114.022 102.486L113.778 101.563C113.45 100.328 113.118 99.0937 112.785 97.8646L112.549 96.974C112.108 95.3125 111.665 93.65 111.226 91.9896L111.038 91.276C110.83 90.4687 110.625 89.6614 110.42 88.849L110.256 88.2187C109.937 86.9479 109.667 85.7031 109.466 84.4062C109.416 84.0677 109.365 83.7344 109.313 83.3906C109.116 82.1146 108.919 80.8385 108.762 79.5521C108.582 78.1979 108.364 76.8594 108.149 75.5104L107.85 73.625C107.729 72.6094 107.729 71.6146 107.713 70.599C107.706 70.2604 107.7 69.9167 107.692 69.5729C107.685 68.7604 107.695 67.9479 107.713 67.1354L107.726 66.7396C107.729 66.5937 107.732 66.4479 107.733 66.2969C107.753 64.349 107.753 64.349 108.689 63.3542L109.489 63.3698L110.324 63.3958L111.193 63.4114L112.093 63.4427C113.32 63.4792 114.548 63.5833 115.777 63.6875L117.191 63.7813C119.033 63.9167 120.859 64.224 122.668 64.6094C123.183 64.7187 123.698 64.8229 124.214 64.9271C125.406 65.1719 126.597 65.4167 127.787 65.6615C130.139 66.1354 132.494 66.6094 134.853 67.0469C136.128 67.2865 137.389 67.6094 138.65 67.9427C138.651 67.9427 141.329 68.6562 141.329 68.6562L141.327 68.6562C141.327 68.6562 143.039 69.1094 143.039 69.1094C147.132 70.2083 151.231 71.2604 155.33 72.349L156.167 72.5781C165.088 74.9687 173.952 77.599 182.783 80.3333L184.052 80.724C188.542 82.1094 193.022 83.5104 197.5 84.9271C198.027 85.0885 198.554 85.2448 199.082 85.4062L200.666 85.9062L201.178 86.0729L202.176 86.3958C203.001 86.724 203.001 86.724 203.398 87.349V87.9687L202.667 88.4062C202.299 88.651 201.932 88.9063 201.567 89.1667C200.612 89.8437 199.66 90.526 198.708 91.2083C196.977 92.4479 196.977 92.4479 196.122 92.9687C193.712 94.5104 191.389 96.099 189.301 98.0625L188.805 98.5521C187.722 99.625 187.117 100.589 186.68 102.068L186.402 102.943C184.775 108.339 184.823 114.443 185.183 120.109C185.241 121.038 185.299 121.967 185.357 122.896L185.43 124.063C185.584 126.432 185.781 128.766 186.045 131.125C186.14 131.938 186.235 132.75 186.33 133.563L186.403 134.167C186.678 136.5 186.995 138.802 187.387 141.11L187.558 142.12C192.115 168.36 200.83 194.995 211.857 218.807L212.275 219.719C213.145 221.568 214.111 223.307 215.152 225.063L215.566 225.766C215.872 226.279 216.181 226.792 216.491 227.302C216.729 227.698 216.967 228.094 217.203 228.49C217.773 229.521 217.838 230.328 217.795 231.51L217.782 232.219C217.727 233.917 217.472 235.562 217.206 237.229L217.076 238.042C216.877 239.266 216.665 240.49 216.447 241.713L216.228 242.958C215.84 245.141 215.41 247.312 214.898 249.469C214.83 249.761 214.761 250.052 214.691 250.354L214.479 251.24L214.291 252.031C214.121 252.859 213.966 253.641 213.875 254.484C213.773 255.318 213.562 256.078 213.322 256.88C213.138 257.521 212.988 258.135 212.897 258.797L212.843 259.177C212.673 260.412 212.516 261.625 212.533 262.875L212.497 263.891C212.413 265.896 212.229 267.833 211.857 269.812L211.759 270.365C210.954 274.583 210.155 278.823 208.929 282.937L208.767 283.49C208.56 284.182 208.349 284.87 208.138 285.552L207.886 286.375C207.648 287.161 207.412 287.948 207.188 288.745C206.854 289.807 206.428 290.615 205.762 291.495L205.395 292.005C205.166 292.328 204.935 292.646 204.701 292.964C204.463 293.297 204.225 293.63 203.988 293.964L203.398 294.813C202.998 293.813 202.591 292.818 202.176 291.828C201.947 291.276 201.719 290.724 201.49 290.167L201.136 289.302C199.898 286.276 198.62 283.286 197.246 280.323C196.787 279.307 196.33 278.287 195.872 277.271C191.822 268.286 187.716 259.323 183.517 250.417L183.154 249.641L182.791 248.865C181.94 247.057 181.087 245.25 180.234 243.443C178.94 240.697 177.648 237.948 176.358 235.199L175.894 234.215C172.922 227.89 169.955 221.563 167 215.234L166.523 214.214C166.273 213.681 166.022 213.146 165.771 212.615L165.337 211.693L164.937 210.854C164.668 210.286 164.402 209.719 164.13 209.151C163.859 208.583 163.592 208.016 163.323 207.448L162.564 205.828C162.297 205.258 162.027 204.688 161.757 204.118L161.319 203.182C159.854 200.099 158.251 197.224 156.316 194.438L155.796 193.688C153.893 191.036 151.625 188.656 149.526 186.159C147.858 184.13 146.309 182.031 144.84 179.839C144.458 179.281 144.067 178.729 143.676 178.177L143.189 177.484L142.727 176.839C141.944 175.734 141.167 174.63 140.397 173.521L139.846 172.734L138.889 171.354C138.419 170.667 138.419 170.667 137.925 169.969C137.48 169.354 137.036 168.74 136.595 168.125C136.232 167.625 135.866 167.125 135.501 166.625C135.243 166.271 134.986 165.917 134.73 165.562C134.353 165.036 134.353 165.036 134.125 164.516V163.885L134.816 164.023L135.632 164.183C136.194 164.297 136.194 164.297 136.766 164.409C137.143 164.484 137.521 164.562 137.898 164.641L138.889 164.833L139.918 165.036C142.123 165.479 144.323 165.937 146.516 166.443L147.213 166.602C147.559 166.682 147.906 166.76 148.253 166.839L148.894 166.984C152.038 167.703 152.038 167.703 153.12 168.969C153.528 169.943 153.937 170.912 154.346 171.885C154.691 172.693 155.034 173.505 155.379 174.318L155.764 175.229C156.144 176.125 156.528 177.016 156.918 177.906C157.136 178.406 157.354 178.906 157.571 179.401C158.127 180.669 158.685 181.94 159.245 183.21L159.564 183.932L160.165 185.302C160.368 185.766 160.573 186.234 160.777 186.698L161.113 187.464C164.375 194.932 164.375 194.932 166.342 197.974L166.747 198.609L167.136 199.203C167.503 199.771 167.868 200.339 168.23 200.911C169.1 202.276 169.988 203.63 170.889 204.974L171.387 205.719C174.25 209.948 174.25 209.948 175.426 211.198C175.788 211.141 175.788 211.141 176.16 211.078C177.22 210.911 178.241 210.766 179.311 210.661L180.204 210.583C181.233 210.495 181.934 210.432 182.783 209.869C183.079 209.635 183.375 209.401 183.679 209.167L184.3 208.687L184.919 208.208L186.087 207.307L186.746 206.797L187.422 206.266C187.83 205.946 188.24 205.63 188.648 205.312C189.252 204.844 189.855 204.375 190.458 203.906C192.073 202.656 193.696 201.422 195.324 200.198L196.046 199.656C197.497 198.562 198.932 197.463 200.33 196.302C202.038 194.912 203.829 193.662 205.611 192.38C206.19 191.958 206.766 191.531 207.342 191.104C212.068 187.62 216.792 184.307 221.876 181.427L222.454 181.099C227.002 178.526 231.597 176.323 236.445 174.521L237.138 174.255C240.056 173.177 243.03 172.318 246.028 171.521L246.679 171.349C247.094 171.24 247.515 171.13 247.932 171.021L248.524 170.864C250.078 170.578 251.515 170.729 253.006 171.333C253.423 171.844 253.673 172.302 253.887 172.922L254.093 173.541C254.184 173.807 254.275 174.073 254.369 174.344L254.577 174.969L254.739 175.448L254.862 175.807L255.198 176.818L255.343 177.24C255.619 178.052 255.619 178.052 255.619 178.685C254.958 178.909 254.296 179.13 253.634 179.349L252.75 179.64C252.4 179.755 252.045 179.87 251.683 179.99L249.987 180.547C249.428 180.729 248.869 180.917 248.309 181.104L247.736 181.297L246.582 181.688C245.439 182.062 244.303 182.438 243.167 182.823L242.604 183.01L241.41 183.417C240.821 183.625 240.232 183.823 239.638 184.031C239.084 184.214 238.54 184.417 237.995 184.641C234.795 185.885 231.565 187.057 228.296 188.099L227.625 188.318C225.83 188.896 224.026 189.432 222.21 189.948C221.679 190.104 221.146 190.25 220.611 190.396L219.825 190.625C219.3 190.771 218.776 190.917 218.25 191.062L217.454 191.286L216.728 191.5C214.813 192.057 214.813 192.057 213.438 193.625L212.978 194.135L212.532 194.625C212.262 194.891 211.993 195.156 211.721 195.417C212.247 195.63 212.774 195.839 213.302 196.047C214.074 196.354 214.079 196.354 214.754 196.792L215.325 197.167C216.125 197.667 216.125 197.667 216.923 198.177C217.203 198.359 217.482 198.542 217.766 198.724C218.351 199.109 218.933 199.495 219.513 199.891C220.42 200.516 221.344 201.104 222.278 201.688C222.769 201.99 223.258 202.302 223.744 202.615C225.124 203.521 226.437 204.469 227.727 205.5L228.227 205.896C229.017 206.531 229.803 207.167 230.59 207.802C231.064 208.185 231.538 208.568 232.013 208.953C232.713 209.516 233.415 210.078 234.117 210.64C234.489 210.932 234.859 211.224 235.229 211.516L235.911 212.062C236.257 212.339 236.601 212.615 236.947 212.885L237.517 213.333C237.892 213.63 238.265 213.932 238.635 214.229C240.027 215.338 241.454 216.38 242.89 217.411C243.197 217.635 243.505 217.854 243.811 218.078L244.743 218.74L245.593 219.349C248.298 221.276 251.034 223.151 253.767 225.031L254.52 225.547C254.988 225.865 255.456 226.188 255.925 226.51L258.138 228.021C258.502 228.266 258.866 228.51 259.233 228.755L260.239 229.432C260.542 229.635 260.844 229.839 261.154 230.052C261.902 230.552 262.659 231.027 263.428 231.479L263.874 231.745C265.1 232.484 266.115 233.24 267.091 234.302L267.565 234.812L268.042 235.333C266.908 236.438 265.664 237.005 264.215 237.557L263.45 237.849L262.646 238.146C259.375 239.396 256.02 240.359 252.607 241.177L251.744 241.385L250.965 241.573L250.157 241.766C248.894 242.104 247.629 242.43 246.366 242.75L245.643 242.937C244.305 243.276 242.968 243.615 241.63 243.953C240.883 244.141 240.136 244.328 239.391 244.526L238.72 244.703C227.891 247.51 216.997 248.104 206.009 245.479L205.345 245.323L204.052 245.005L203.4 244.839L202.09 244.5L200.811 244.172L200.178 244.01L199.546 243.844C197.988 243.443 196.441 243.016 194.894 242.578L194.246 242.401L193.591 242.224L192.941 242.042C187.791 240.667 187.791 240.667 186.091 239.755C185.673 239.531 185.673 239.531 185.208 239.375L185.021 240.266L184.85 240.891L184.59 241.844C184.368 242.776 184.368 242.776 183.909 243.536C182.908 244.052 181.963 244.411 180.965 244.839C180.612 244.995 180.259 245.151 179.895 245.307C176.805 246.662 173.616 247.969 170.441 249.151L169.885 249.359C168.759 249.776 167.63 250.177 166.5 250.568C166.125 250.698 165.75 250.828 165.375 250.953C164.236 251.339 163.095 251.698 161.934 252.01L161.207 252.219L160.559 252.401C158.835 252.802 157.085 252.802 155.33 252.599C154.85 251.875 154.55 251.161 154.277 250.307L154.065 249.677L153.828 248.964L153.586 248.245C153.408 247.729 153.229 247.213 153.049 246.693C152.878 246.188 152.708 245.693 152.543 245.198C150.635 239.547 148.564 234.056 146.195 228.651L145.84 227.807C142.77 220.557 139.19 213.62 135.253 206.872L134.923 206.318C129.984 197.875 124.573 189.792 119.021 181.833C117.691 179.88 116.425 177.891 115.175 175.875L114.77 175.219C114.416 174.615 114.062 174.005 113.709 173.391L113.345 172.755L112.986 172.141C112.645 171.552 112.307 170.969 111.974 170.385C111.699 169.906 111.422 169.432 111.143 168.958L110.903 168.547C109.87 166.818 108.956 165.052 108.066 163.236C107.733 162.573 107.377 161.935 107.019 161.297L106.59 160.531L106.167 159.802C104.903 157.677 103.783 155.484 102.672 153.276L102.373 152.687C102.192 152.328 102.011 151.969 101.828 151.604L101.657 151.271C100.715 149.437 99.6625 147.833 98.5 146.214L98.1187 145.677C96.715 143.714 95.1675 141.891 93.54 140.156L93.0912 139.677C91.1337 137.661 89.265 136 86.825 134.667C86.4162 134.427 86.4162 134.427 86.0512 134.135L85.5625 133.75C85.1475 132.76 84.9975 131.776 84.8187 130.714L84.6275 129.672C84.5925 129.505 84.5575 129.338 84.5225 129.167L84.1825 127.479L83.8375 125.667C83.3875 123.359 82.9275 121.052 82.3012 118.792L82.115 118.115C81.9825 117.625 81.85 117.135 81.7175 116.646C81.625 116.31 81.5325 115.974 81.4387 115.63C81.3087 115.156 81.1787 114.682 81.0487 114.208C80.9987 114.026 80.9487 113.844 80.8962 113.656C80.7112 112.979 80.525 112.302 80.3387 111.625C80.205 111.151 80.0725 110.677 79.94 110.208C79.8262 109.781 79.7087 109.354 79.5912 108.927C79.3412 108.016 79.1087 107.104 78.8812 106.188C78.2262 103.537 77.48 100.969 76.6412 98.385L76.3437 97.474C75.3362 94.3854 74.145 91.3802 72.9525 88.3594C72.715 87.75 72.48 87.1406 72.2437 86.5312L71.9187 85.6823C71.7437 85.2344 71.57 84.7812 71.3962 84.3333L71.155 83.7031C70.89 83.026 70.625 82.349 70.3587 81.6719L70.015 80.786C69.6437 79.8437 69.27 78.9062 68.89 77.9687C68.59 77.2187 68.29 76.4687 67.9937 75.7187C67.7575 75.1197 67.5187 74.5208 67.2812 73.9219L66.9737 73.1458C66.675 72.401 66.3812 71.6615 66.0837 70.9219L65.8412 70.3229C65.565 69.6302 65.565 69.6302 65.7 68.9687C66.3987 68.3385 67.255 68.2187 68.1375 68.0937L68.8125 67.9844C69.0462 67.9479 69.2812 67.9115 69.5225 67.8698L70.8437 67.6562L72.205 67.4479C75.3362 66.974 78.49 66.5937 81.6475 66.2656L82.4712 66.1771C85.1562 65.8958 87.85 65.651 90.54 65.4166L91.3687 65.3437L91.8087 65.3073C92.4962 65.2448 93.1837 65.1875 93.8725 65.1302C95.1837 65.0052 96.4912 64.8698 97.805 64.9271Z" fill="currentColor"></path>
<path d="M392.901 95.0885C393.104 98.4844 392.528 101.807 392.024 105.141L391.908 105.958C390.803 113.432 389.074 120.927 386.769 128.078L386.517 128.865C382.448 141.531 376.979 153.646 370.111 164.833L369.665 165.562C365.451 172.411 360.777 179.042 355.599 185.089C355.144 185.625 354.688 186.161 354.233 186.703C352.296 188.995 350.305 191.219 348.27 193.406C347.762 193.953 347.253 194.505 346.745 195.057C345.001 196.943 343.238 198.724 341.291 200.375C340.617 200.953 339.978 201.557 339.343 202.182C337.76 203.708 336.084 205.104 334.403 206.5C333.914 206.906 333.424 207.318 332.94 207.729C330.722 209.594 328.445 211.333 326.11 213.021C325.335 213.583 324.57 214.146 323.8 214.714C319.77 217.651 315.633 220.396 311.385 222.953L310.504 223.484C294.989 232.792 278.467 238.25 260.846 240.474C260.448 240.521 260.051 240.578 259.654 240.635C254.849 241.318 250.039 241.25 245.205 241.219C244.101 241.214 242.992 241.208 241.887 241.208C239.732 241.203 237.576 241.193 235.421 241.177V240.547L236.302 240.224C245.239 236.917 253.875 233.245 262.299 228.609L262.832 228.318C271.507 223.526 279.441 217.599 287.137 211.187C287.699 210.719 288.261 210.255 288.828 209.786C290.732 208.208 292.543 206.578 294.306 204.818C294.936 204.198 295.566 203.583 296.21 202.984L296.781 202.453C297.179 202.078 297.581 201.703 297.983 201.328C299.654 199.745 301.242 198.078 302.822 196.391L303.451 195.714C304.623 194.453 305.752 193.146 306.837 191.797C307.447 191.031 308.087 190.297 308.721 189.557C310.16 187.859 311.506 186.099 312.848 184.312C313.134 183.943 313.415 183.568 313.701 183.198C317.445 178.307 320.961 173.234 324.241 167.974C324.483 167.594 324.725 167.208 324.967 166.828C326.934 163.693 328.813 160.505 330.668 157.292L331.022 156.682C335.512 148.885 339.319 140.693 342.458 132.172C344.202 127.443 346.255 124.786 349.985 121.583C350.712 120.953 351.424 120.307 352.126 119.646C354.5 117.437 357.018 115.448 359.561 113.474C360.089 113.068 360.617 112.651 361.14 112.24L361.915 111.641L362.642 111.099C364.801 109.505 366.978 108.036 369.352 106.729C369.804 106.474 370.254 106.214 370.701 105.948L371.255 105.625L372.267 105.042C378.013 101.755 384.189 98.9479 390.271 96.4219L391.154 96.0521L391.943 95.7187C392.283 95.5833 392.283 95.5833 392.628 95.4427C392.716 95.3646 392.806 95.2864 392.901 95.0885Z" fill="currentColor"></path>
<path d="M340.312 131.219H340.893C340.734 132.526 340.462 133.578 339.93 134.76L339.508 135.708L339.053 136.719L338.573 137.771C337.009 141.198 335.347 144.552 333.589 147.87L333.085 148.828C328.033 158.333 322.322 167.51 316.06 176.146C315.822 176.484 315.58 176.823 315.343 177.161C312.993 180.49 310.499 183.661 307.888 186.75C307.375 187.365 306.866 187.984 306.362 188.615C303.868 191.682 301.242 194.62 298.569 197.505L297.958 198.167C296.81 199.396 295.624 200.578 294.393 201.714C293.647 202.411 292.931 203.141 292.214 203.87C290.475 205.599 288.639 207.172 286.76 208.719C286.285 209.109 285.81 209.505 285.34 209.901C275.454 218.177 264.755 225.214 253.192 230.438C252.403 230.792 251.618 231.156 250.838 231.521C250.383 231.729 249.933 231.938 249.482 232.146L248.872 232.432C248.387 232.646 247.893 232.828 247.399 233.01L246.523 232.693C248.465 231.266 250.461 229.948 252.476 228.651C254.52 227.323 256.51 225.99 258.414 224.432C259.116 223.875 259.838 223.385 260.584 222.896C263.8 220.729 266.745 218.089 269.695 215.531L270.223 215.078C273.367 212.333 276.244 209.271 279.097 206.193C279.635 205.615 280.172 205.036 280.715 204.458C282.429 202.615 284.11 200.76 285.675 198.766C285.98 198.391 286.285 198.016 286.59 197.641C288.29 195.562 289.937 193.453 291.511 191.26C292.388 190.047 293.304 188.87 294.238 187.708C295.725 185.854 297.072 183.896 298.414 181.911C299.76 179.922 301.155 177.969 302.57 176.026C303.558 174.667 304.541 173.297 305.51 171.922C307.428 169.203 309.424 166.557 311.453 163.938C311.971 163.26 312.49 162.578 313.003 161.896C315.067 159.167 317.222 156.526 319.47 153.974C319.964 153.401 320.448 152.818 320.918 152.229C322.284 150.531 323.703 148.885 325.117 147.24L325.607 146.672C327.781 144.141 329.995 141.651 332.257 139.208L332.906 138.51C334.083 137.245 335.299 136.031 336.558 134.865C337.047 134.406 337.532 133.938 338.007 133.458L338.815 132.651L339.634 131.828L340.312 131.219Z" fill="currentColor"></path>
<path d="M340.893 203.161L341.48 203.479L340.826 205.885C340.642 206.578 340.453 207.271 340.264 207.958C339.653 210.198 339.653 210.198 339.067 212.443C335.594 225.849 329.622 238.047 320.424 247.891C318.791 249.594 317.028 251.062 315.183 252.484L314.243 253.219C309.69 256.698 304.987 259.219 299.644 260.948L299.029 261.151C297.862 261.51 296.825 261.667 295.609 261.599C296.021 259.974 296.5 258.396 297.072 256.828C298.235 253.635 299.068 250.375 299.881 247.068C303.267 233.432 303.267 233.432 306.154 229.823C308.024 227.859 310.339 226.594 312.611 225.255C314.577 224.099 316.515 222.896 318.447 221.672C318.951 221.354 319.455 221.036 319.959 220.719C322.061 219.38 324.042 217.932 325.994 216.359C326.386 216.052 326.774 215.75 327.166 215.443C332 211.661 336.52 207.536 340.893 203.161ZM305.8 17.3542L306.503 17.3594C307.985 17.4063 309.23 17.5573 310.547 18.3542L311.095 18.7448L311.695 19.1406C313.623 20.5208 314.815 22.3906 315.861 24.5833C317.082 27.8073 316.941 31.5052 316.558 34.9115C315.473 42.4844 312.732 50.1979 309.579 57.0365L309.22 57.8125C308.489 59.3438 307.675 60.724 306.711 62.1042C306.081 61.8073 305.621 61.5677 305.166 61.0104C304.793 60.3854 304.42 59.7552 304.062 59.1146L303.64 58.3698C299.344 50.4479 295.696 39.9479 295.537 30.651C295.527 27.8802 295.643 25.4323 295.537 30.651C295.527 27.8802 295.643 25.4323 295.907 22.9427C298.254 20.7031 299.906 19.1302 302.105 17.9115C303.325 17.3698 304.488 17.3333 305.8 17.3542Z" fill="currentColor"></path>
<path d="M339.581 41.2292C340.976 41.9479 342.046 42.8281 342.942 44.1927C343.635 45.5885 344.056 46.9271 344.177 48.5052C344.105 50.5417 343.504 52.2448 342.603 54.0208C341.373 55.9792 339.644 57 337.735 58.0938C334.94 59.5469 332.02 60.6979 329.128 61.9063C324.284 63.9323 319.702 66.276 315.488 69.599L314.602 70.2708H314.015C314.151 64.7708 316.597 59.3177 319.189 54.6875C320.7 52.0885 322.337 49.625 324.241 47.3333L324.846 46.599C326.876 44.2552 329.482 42.2344 332.257 41.0313C334.587 40.349 337.304 40.3646 339.581 41.2292ZM283.665 45.4792C287.312 47.3177 289.971 50.1406 292.282 53.6146C295.173 58.1198 298.239 63.3073 299.407 68.6979C299.436 69.5885 299.436 69.5885 299.407 70.2708C298.448 69.8698 297.508 69.4219 296.592 68.9219C292.737 66.8646 288.852 65.2135 284.793 63.6927C276.941 60.7031 276.941 60.7031 274.926 58.349C274.025 57.1458 273.493 56.0677 273.11 54.5625C272.955 52.8802 272.873 51.125 273.28 49.4792C274.064 47.8125 275.532 46.5365 276.907 45.4531C278.981 44.3802 281.533 44.6771 283.665 45.4792Z" fill="currentColor"></path>
</svg>